<svg width="123" height="142" viewBox="0 0 123 142" fill="none" xmlns="http://www.w3.org/2000/svg">
<path d="M123 0H0V102H123V0Z" fill="white"/>
<path d="M77.3146 0H122.917V102.451L77.3146 0ZM45.6021 0H0V102.451L45.6021 0ZM61.4583 37.9198L90.1594 102.451H70.6771L62.5031 81.924H41.4844L61.4583 37.9198Z" fill="#FF0000" stroke="#FF0000" stroke-width="0.001475"/>
<path d="M18.8062 130.178H8.89019L6.4112 137.658C6.3827 137.886 6.22598 138 5.94104 138H1.4532C1.16826 138 1.06853 137.858 1.15402 137.573L10.0442 112.184C10.2437 111.757 10.3719 110.959 10.4289 109.791C10.4289 109.62 10.5286 109.534 10.7281 109.534H16.8828C17.0253 109.534 17.1393 109.606 17.2247 109.748L27.1407 137.615C27.2262 137.872 27.1407 138 26.8843 138H21.8408C21.6414 138 21.4989 137.9 21.4134 137.701L18.8062 130.178ZM10.0015 126.032H17.6949C17.5809 125.634 16.9825 123.824 15.8998 120.604C14.8455 117.356 14.1474 115.133 13.8054 113.937H13.7627C13.4208 115.39 12.167 119.422 10.0015 126.032ZM40.453 138.427C37.1477 138.427 34.4834 137.53 32.4604 135.735C30.4658 133.911 29.4685 131.247 29.4685 127.742C29.4685 124.579 30.537 121.972 32.6741 119.92C34.8396 117.84 37.7318 116.8 41.3505 116.8C42.3478 116.8 43.1457 116.886 43.7441 117.057V107.483C43.7441 107.283 43.8438 107.184 44.0433 107.184H48.9158C49.0867 107.184 49.1722 107.269 49.1722 107.44V133.213C49.1722 133.697 49.2149 134.666 49.3004 136.119C49.3289 136.319 49.2434 136.447 49.044 136.504C46.394 137.786 43.5304 138.427 40.453 138.427ZM43.7441 133.982V121.032C43.1172 120.718 42.2909 120.562 41.2651 120.562C39.3844 120.562 37.8743 121.174 36.7345 122.399C35.5947 123.596 35.0248 125.306 35.0248 127.528C35.0248 129.865 35.5947 131.603 36.7345 132.743C37.8743 133.883 39.3132 134.452 41.0514 134.452C42.2196 134.452 43.1172 134.296 43.7441 133.982ZM64.2365 116.8C67.4849 116.8 70.0351 117.812 71.8872 119.835C73.7393 121.858 74.6654 124.423 74.6654 127.528C74.6654 130.891 73.6966 133.555 71.759 135.521C69.8214 137.459 67.2854 138.427 64.151 138.427C60.7032 138.427 58.0818 137.387 56.2866 135.307C54.4915 133.199 53.5939 130.634 53.5939 127.614C53.5939 124.451 54.5627 121.858 56.5003 119.835C58.4664 117.812 61.0452 116.8 64.2365 116.8ZM64.0228 120.519C62.5411 120.519 61.3444 121.146 60.4325 122.399C59.5207 123.625 59.0648 125.334 59.0648 127.528C59.0648 129.722 59.5207 131.461 60.4325 132.743C61.3444 134.025 62.6123 134.666 64.2365 134.666C65.6327 134.666 66.801 134.082 67.7413 132.914C68.6816 131.717 69.1518 129.95 69.1518 127.614C69.1518 125.477 68.7244 123.767 67.8695 122.485C67.0147 121.174 65.7325 120.519 64.0228 120.519ZM79.3345 107.184H84.1216C84.3495 107.184 84.4635 107.297 84.4635 107.525V117.57C85.8597 117.057 87.3414 116.8 88.9086 116.8C91.872 116.8 94.2513 117.755 96.0464 119.664C97.8415 121.545 98.7391 123.981 98.7391 126.973C98.7391 130.535 97.6278 133.341 95.4053 135.393C93.1827 137.416 90.5328 138.427 87.4554 138.427C84.264 138.427 81.5428 137.886 79.2918 136.803C79.1208 136.718 79.0354 136.575 79.0354 136.376V107.483C79.0354 107.283 79.1351 107.184 79.3345 107.184ZM93.1827 127.486C93.1827 125.292 92.6841 123.639 91.6868 122.528C90.718 121.388 89.393 120.818 87.7118 120.818C86.4581 120.818 85.3753 121.046 84.4635 121.502V133.982C85.2898 134.438 86.3869 134.666 87.7546 134.666C89.2648 134.666 90.547 134.054 91.6013 132.828C92.6556 131.575 93.1827 129.794 93.1827 127.486ZM116.324 128.597H107.733C107.762 130.335 108.303 131.731 109.357 132.786C110.44 133.811 112.007 134.324 114.059 134.324C116.082 134.324 117.849 133.968 119.359 133.256C119.53 133.199 119.615 133.27 119.615 133.469V136.675C119.615 136.931 119.53 137.102 119.359 137.188C117.564 138.014 115.412 138.427 112.905 138.427C110.996 138.427 109.329 138.128 107.904 137.53C106.479 136.931 105.368 136.119 104.57 135.094C103.772 134.068 103.174 132.957 102.775 131.76C102.405 130.535 102.22 129.224 102.22 127.828C102.22 124.722 103.117 122.114 104.912 120.006C106.736 117.869 109.215 116.8 112.349 116.8C115.313 116.8 117.535 117.684 119.017 119.45C120.499 121.217 121.239 123.283 121.239 125.648C121.239 126.531 121.182 127.343 121.068 128.084C121.04 128.283 120.926 128.397 120.726 128.426C119.929 128.54 118.461 128.597 116.324 128.597ZM107.733 125.263H113.802C115.142 125.263 115.897 125.235 116.068 125.178C116.096 125.064 116.11 124.864 116.11 124.579C116.11 123.496 115.797 122.528 115.17 121.673C114.572 120.818 113.574 120.391 112.178 120.391C110.839 120.391 109.785 120.861 109.015 121.801C108.275 122.713 107.847 123.867 107.733 125.263Z" fill="white"/>
</svg>
