<svg width="1140" height="217" viewBox="0 0 1140 217" fill="none" xmlns="http://www.w3.org/2000/svg">
<path d="M1.5699 124.614C-10.0823 44.7749 45.9849 8.27186 75.475 0.000244141C26.7084 47.0406 52.6381 100.878 71.6988 121.917C44.5104 114.58 13.6177 120.658 1.5699 124.614Z" fill="#008FF5"/>
<path d="M213.576 160.756C147.762 258.397 16.6754 213.622 3.72852 131.086C3.72852 131.086 44.727 118.139 75.4758 129.468C89.5016 143.494 145.065 208.228 213.576 160.756Z" fill="#2A3744"/>
<path d="M88.4219 132.715C147.762 149.978 212.496 124.084 215.733 51.7972C240.548 98.7296 225.982 132.715 219.509 147.28C215.733 158.069 155.853 205.541 88.4219 132.715Z" fill="#008FF5"/>
<circle cx="134.327" cy="59.8843" r="55.5637" fill="#99D4FF"/>
<path d="M102.147 71.5026L79.9023 77.4534C79.9023 77.4534 89.553 119.161 138.643 114.365C187.734 109.568 184.497 81.2836 184.497 81.2836L181.079 78.6805C172.819 72.3885 161.834 70.969 152.246 74.9547L149.815 75.9653C141.72 79.3303 132.54 78.8708 124.822 74.7144L123.487 73.9955C116.951 70.4759 109.318 69.5843 102.147 71.5026Z" fill="#4193CF"/>
<path d="M96.8452 80.9971L78.4922 74.6824C78.4922 74.6824 87.0821 119.554 139.159 114.474C191.235 109.395 188.271 74.9844 188.271 74.9844L181.879 78.0723C175.134 81.3307 167.393 81.8657 160.264 79.5662L146.873 75.2467C139.846 72.98 132.22 73.4663 125.538 76.6074L118.715 79.8146C111.857 83.0386 104.012 83.4628 96.8452 80.9971Z" fill="#2E495E"/>
<path d="M194.203 59.3401C194.203 92.1126 167.636 118.68 134.863 118.68C102.091 118.68 75.5234 92.1126 75.5234 59.3401C75.5234 26.5676 102.091 0.000244141 134.863 0.000244141C167.636 0.000244141 194.203 26.5676 194.203 59.3401ZM80.7643 59.3401C80.7643 89.2182 104.985 113.439 134.863 113.439C164.741 113.439 188.962 89.2182 188.962 59.3401C188.962 29.462 164.741 5.24108 134.863 5.24108C104.985 5.24108 80.7643 29.462 80.7643 59.3401Z" fill="url(#paint0_linear_32_5)"/>
<path d="M155.46 17.4798C155.568 17.6588 155.632 17.9552 155.602 18.3762C157.815 33.1543 155.079 54.3004 136.85 60.5181C144.112 58.662 158.573 48.9758 158.319 25.0807C159.672 42.6292 154.941 76.2634 125.191 70.4098L122.81 69.5919L120.851 68.4893C120.669 68.1982 120.487 67.8887 120.304 67.5644L130.49 59.9488C134.303 56.7326 137.458 52.8102 139.779 48.3994L144.069 40.2492L134.172 54.4192C131.853 56.9822 129.291 59.3157 126.523 61.3858L119.721 66.4713C116.464 60.0103 113.945 48.7208 121.978 39.5761C133.169 26.8382 143.277 34.9529 150.087 27.4053C154.305 22.7307 155.5 19.8201 155.602 18.3762C155.557 18.0747 155.51 17.7758 155.46 17.4798Z" fill="url(#paint1_linear_32_5)"/>
<path d="M356.67 164.051C348.566 167.974 337.983 169.936 324.923 169.936C307.889 169.936 294.493 164.929 284.737 154.914C274.98 144.9 270.102 131.556 270.102 114.882C270.102 97.1247 275.574 82.7225 286.518 71.6756C297.513 60.6288 311.76 55.1054 329.26 55.1054C340.1 55.1054 349.237 56.4733 356.67 59.2092V83.2903C349.237 78.8509 340.771 76.6312 331.273 76.6312C320.845 76.6312 312.431 79.9091 306.03 86.465C299.629 93.0208 296.429 101.9 296.429 113.101C296.429 123.838 299.449 132.407 305.488 138.808C311.528 145.158 319.658 148.332 329.879 148.332C339.635 148.332 348.566 145.958 356.67 141.209V164.051ZM439.599 168H416.447V156.618H416.137C410.82 165.496 402.948 169.936 392.521 169.936C384.829 169.936 378.764 167.768 374.324 163.432C369.937 159.044 367.743 153.211 367.743 145.932C367.743 130.549 376.854 121.67 395.076 119.296L416.602 116.431C416.602 107.759 411.904 103.422 402.509 103.422C393.063 103.422 384.081 106.236 375.563 111.862V93.4338C378.97 91.6787 383.616 90.1301 389.501 88.7879C395.437 87.4458 400.832 86.7747 405.684 86.7747C428.294 86.7747 439.599 98.0538 439.599 120.612V168ZM416.602 135.789V130.446L402.2 132.304C394.25 133.337 390.275 136.924 390.275 143.067C390.275 145.855 391.23 148.152 393.14 149.959C395.102 151.714 397.735 152.591 401.038 152.591C405.632 152.591 409.375 151.017 412.266 147.868C415.157 144.667 416.602 140.641 416.602 135.789ZM510.681 110.778C507.738 109.178 504.306 108.378 500.382 108.378C495.065 108.378 490.91 110.34 487.916 114.263C484.922 118.134 483.425 123.425 483.425 130.136V168H458.957V88.7105H483.425V103.422H483.735C487.606 92.6853 494.575 87.3167 504.641 87.3167C507.222 87.3167 509.235 87.6264 510.681 88.2459V110.778ZM546.919 158.786H546.609V168H522.141V50.6143H546.609V100.635H546.919C552.958 91.3948 561.553 86.7747 572.703 86.7747C582.924 86.7747 590.796 90.2849 596.32 97.3053C601.843 104.326 604.605 113.927 604.605 126.11C604.605 139.325 601.379 149.933 594.926 157.934C588.473 165.935 579.853 169.936 569.064 169.936C559.308 169.936 551.926 166.219 546.919 158.786ZM546.222 125.335V133.466C546.222 138.576 547.693 142.809 550.635 146.164C553.578 149.52 557.346 151.197 561.94 151.197C567.515 151.197 571.826 149.055 574.871 144.771C577.968 140.435 579.517 134.317 579.517 126.419C579.517 119.864 578.098 114.753 575.258 111.088C572.471 107.371 568.47 105.513 563.257 105.513C558.353 105.513 554.275 107.346 551.022 111.011C547.822 114.676 546.222 119.451 546.222 125.335ZM658.265 169.936C645.05 169.936 634.648 166.245 627.06 158.863C619.523 151.43 615.755 141.364 615.755 128.665C615.755 115.553 619.678 105.307 627.524 97.9248C635.371 90.4914 645.979 86.7747 659.349 86.7747C672.512 86.7747 682.836 90.4914 690.321 97.9248C697.806 105.307 701.549 115.089 701.549 127.271C701.549 140.435 697.677 150.836 689.934 158.476C682.242 166.116 671.686 169.936 658.265 169.936ZM658.884 105.513C653.103 105.513 648.612 107.5 645.411 111.475C642.211 115.45 640.61 121.077 640.61 128.355C640.61 143.583 646.753 151.197 659.039 151.197C670.757 151.197 676.616 143.377 676.616 127.736C676.616 112.921 670.705 105.513 658.884 105.513ZM794.001 168H769.611V123.942C769.611 111.656 765.223 105.513 756.447 105.513C752.214 105.513 748.73 107.139 745.994 110.391C743.258 113.643 741.89 117.773 741.89 122.78V168H717.422V88.7105H741.89V101.254H742.2C748.033 91.6012 756.525 86.7747 767.675 86.7747C785.226 86.7747 794.001 97.6667 794.001 119.451V168ZM810.727 163.741V138.963C815.218 142.732 820.096 145.571 825.361 147.481C830.626 149.339 835.943 150.268 841.312 150.268C844.461 150.268 847.197 149.984 849.52 149.417C851.894 148.849 853.856 148.074 855.404 147.094C857.005 146.061 858.192 144.874 858.966 143.532C859.74 142.138 860.128 140.641 860.128 139.041C860.128 136.873 859.508 134.937 858.269 133.233C857.03 131.53 855.327 129.955 853.159 128.51C851.042 127.065 848.513 125.671 845.571 124.329C842.628 122.987 839.454 121.619 836.047 120.225C827.374 116.612 820.896 112.198 816.611 106.984C812.378 101.771 810.262 95.4728 810.262 88.091C810.262 82.3095 811.423 77.3539 813.746 73.2242C816.069 69.043 819.218 65.6102 823.193 62.9259C827.219 60.2416 831.865 58.28 837.131 57.0411C842.396 55.7506 847.971 55.1054 853.856 55.1054C859.637 55.1054 864.748 55.4667 869.187 56.1894C873.678 56.8605 877.808 57.9187 881.576 59.3641V82.516C879.718 81.2255 877.679 80.0898 875.459 79.109C873.291 78.1282 871.045 77.3281 868.723 76.7086C866.4 76.0376 864.077 75.5472 861.754 75.2375C859.482 74.9277 857.314 74.7729 855.249 74.7729C852.41 74.7729 849.829 75.0568 847.506 75.6246C845.183 76.1408 843.222 76.8893 841.622 77.8701C840.021 78.8509 838.782 80.0382 837.905 81.4319C837.027 82.7741 836.589 84.2969 836.589 86.0004C836.589 87.8587 837.079 89.5364 838.06 91.0334C839.041 92.4788 840.434 93.8726 842.241 95.2147C844.048 96.5052 846.242 97.7957 848.823 99.0863C851.404 100.325 854.32 101.616 857.572 102.958C862.012 104.816 865.987 106.804 869.497 108.92C873.059 110.985 876.104 113.334 878.634 115.966C881.163 118.599 883.099 121.619 884.441 125.026C885.783 128.381 886.454 132.304 886.454 136.795C886.454 142.99 885.267 148.203 882.892 152.436C880.569 156.618 877.395 160.025 873.368 162.657C869.342 165.238 864.644 167.097 859.276 168.232C853.959 169.368 848.332 169.936 842.396 169.936C836.305 169.936 830.497 169.42 824.974 168.387C819.502 167.355 814.753 165.806 810.727 163.741ZM973.564 135.324H921.84C922.666 146.835 929.919 152.591 943.598 152.591C952.322 152.591 959.988 150.526 966.596 146.397V164.051C959.265 167.974 949.741 169.936 938.023 169.936C925.221 169.936 915.284 166.4 908.212 159.328C901.14 152.204 897.604 142.293 897.604 129.594C897.604 116.431 901.424 106.003 909.064 98.3119C916.704 90.6204 926.099 86.7747 937.249 86.7747C948.812 86.7747 957.743 90.2075 964.04 97.073C970.39 103.939 973.564 113.256 973.564 125.026V135.324ZM950.877 120.302C950.877 108.946 946.283 103.268 937.094 103.268C933.171 103.268 929.764 104.894 926.873 108.146C924.034 111.398 922.305 115.45 921.685 120.302H950.877ZM1036.05 167.071C1032.44 168.981 1026.99 169.936 1019.71 169.936C1002.47 169.936 993.851 160.98 993.851 143.067V106.752H980.998V88.7105H993.851V71.5982L1018.24 64.6294V88.7105H1036.05V106.752H1018.24V138.808C1018.24 147.068 1021.52 151.197 1028.08 151.197C1030.66 151.197 1033.32 150.449 1036.05 148.952V167.071ZM1125.25 168H1100.86V155.921H1100.47C1094.43 165.264 1086.36 169.936 1076.24 169.936C1057.86 169.936 1048.67 158.812 1048.67 136.563V88.7105H1073.06V134.395C1073.06 145.597 1077.5 151.197 1086.38 151.197C1090.77 151.197 1094.28 149.675 1096.91 146.629C1099.54 143.532 1100.86 139.35 1100.86 134.085V88.7105H1125.25V168Z" fill="#D9D9D9"/>
<defs>
<linearGradient id="paint0_linear_32_5" x1="113.825" y1="4.31587" x2="129.469" y2="81.4577" gradientUnits="userSpaceOnUse">
<stop stop-color="#48B3FF"/>
<stop offset="1" stop-color="#2E495E"/>
</linearGradient>
<linearGradient id="paint1_linear_32_5" x1="113.339" y1="26.2013" x2="154.119" y2="68.267" gradientUnits="userSpaceOnUse">
<stop stop-color="#47ACF5"/>
<stop offset="1" stop-color="#008FF5"/>
</linearGradient>
</defs>
</svg>
