<svg width="683" height="155" viewBox="0 0 683 155" fill="none" xmlns="http://www.w3.org/2000/svg">
<path d="M6 124V30.9091H46.1818C53.0909 30.9091 59.1364 32.2727 64.3182 35C69.5 37.7273 73.5303 41.5606 76.4091 46.5C79.2879 51.4394 80.7273 57.2121 80.7273 63.8182C80.7273 70.4848 79.2424 76.2576 76.2727 81.1364C73.3333 86.0152 69.197 89.7727 63.8636 92.4091C58.5606 95.0455 52.3636 96.3636 45.2727 96.3636H21.2727V76.7273H40.1818C43.1515 76.7273 45.6818 76.2121 47.7727 75.1818C49.8939 74.1212 51.5152 72.6212 52.6364 70.6818C53.7879 68.7424 54.3636 66.4545 54.3636 63.8182C54.3636 61.1515 53.7879 58.8788 52.6364 57C51.5152 55.0909 49.8939 53.6364 47.7727 52.6364C45.6818 51.6061 43.1515 51.0909 40.1818 51.0909H31.2727V124H6ZM216.682 60C216.439 56.9697 215.303 54.6061 213.273 52.9091C211.273 51.2121 208.227 50.3636 204.136 50.3636C201.53 50.3636 199.394 50.6818 197.727 51.3182C196.091 51.9242 194.879 52.7576 194.091 53.8182C193.303 54.8788 192.894 56.0909 192.864 57.4545C192.803 58.5758 193 59.5909 193.455 60.5C193.939 61.3788 194.697 62.1818 195.727 62.9091C196.758 63.6061 198.076 64.2424 199.682 64.8182C201.288 65.3939 203.197 65.9091 205.409 66.3636L213.045 68C218.197 69.0909 222.606 70.5303 226.273 72.3182C229.939 74.1061 232.939 76.2121 235.273 78.6364C237.606 81.0303 239.318 83.7273 240.409 86.7273C241.53 89.7273 242.106 93 242.136 96.5455C242.106 102.667 240.576 107.848 237.545 112.091C234.515 116.333 230.182 119.561 224.545 121.773C218.939 123.985 212.197 125.091 204.318 125.091C196.227 125.091 189.167 123.894 183.136 121.5C177.136 119.106 172.47 115.424 169.136 110.455C165.833 105.455 164.167 99.0606 164.136 91.2727H188.136C188.288 94.1212 189 96.5152 190.273 98.4545C191.545 100.394 193.333 101.864 195.636 102.864C197.97 103.864 200.742 104.364 203.955 104.364C206.652 104.364 208.909 104.03 210.727 103.364C212.545 102.697 213.924 101.773 214.864 100.591C215.803 99.4091 216.288 98.0606 216.318 96.5455C216.288 95.1212 215.818 93.8788 214.909 92.8182C214.03 91.7273 212.576 90.7576 210.545 89.9091C208.515 89.0303 205.773 88.2121 202.318 87.4545L193.045 85.4545C184.803 83.6667 178.303 80.6818 173.545 76.5C168.818 72.2879 166.47 66.5455 166.5 59.2727C166.47 53.3636 168.045 48.197 171.227 43.7727C174.439 39.3182 178.879 35.8485 184.545 33.3636C190.242 30.8788 196.773 29.6364 204.136 29.6364C211.652 29.6364 218.152 30.8939 223.636 33.4091C229.121 35.9242 233.348 39.4697 236.318 44.0455C239.318 48.5909 240.833 53.9091 240.864 60H216.682ZM301.932 60C301.689 56.9697 300.553 54.6061 298.523 52.9091C296.523 51.2121 293.477 50.3636 289.386 50.3636C286.78 50.3636 284.644 50.6818 282.977 51.3182C281.341 51.9242 280.129 52.7576 279.341 53.8182C278.553 54.8788 278.144 56.0909 278.114 57.4545C278.053 58.5758 278.25 59.5909 278.705 60.5C279.189 61.3788 279.947 62.1818 280.977 62.9091C282.008 63.6061 283.326 64.2424 284.932 64.8182C286.538 65.3939 288.447 65.9091 290.659 66.3636L298.295 68C303.447 69.0909 307.856 70.5303 311.523 72.3182C315.189 74.1061 318.189 76.2121 320.523 78.6364C322.856 81.0303 324.568 83.7273 325.659 86.7273C326.78 89.7273 327.356 93 327.386 96.5455C327.356 102.667 325.826 107.848 322.795 112.091C319.765 116.333 315.432 119.561 309.795 121.773C304.189 123.985 297.447 125.091 289.568 125.091C281.477 125.091 274.417 123.894 268.386 121.5C262.386 119.106 257.72 115.424 254.386 110.455C251.083 105.455 249.417 99.0606 249.386 91.2727H273.386C273.538 94.1212 274.25 96.5152 275.523 98.4545C276.795 100.394 278.583 101.864 280.886 102.864C283.22 103.864 285.992 104.364 289.205 104.364C291.902 104.364 294.159 104.03 295.977 103.364C297.795 102.697 299.174 101.773 300.114 100.591C301.053 99.4091 301.538 98.0606 301.568 96.5455C301.538 95.1212 301.068 93.8788 300.159 92.8182C299.28 91.7273 297.826 90.7576 295.795 89.9091C293.765 89.0303 291.023 88.2121 287.568 87.4545L278.295 85.4545C270.053 83.6667 263.553 80.6818 258.795 76.5C254.068 72.2879 251.72 66.5455 251.75 59.2727C251.72 53.3636 253.295 48.197 256.477 43.7727C259.689 39.3182 264.129 35.8485 269.795 33.3636C275.492 30.8788 282.023 29.6364 289.386 29.6364C296.902 29.6364 303.402 30.8939 308.886 33.4091C314.371 35.9242 318.598 39.4697 321.568 44.0455C324.568 48.5909 326.083 53.9091 326.114 60H301.932ZM357.557 124H330.284L361.011 30.9091H395.557L426.284 124H399.011L378.648 56.5455H377.92L357.557 124ZM352.466 87.2727H403.739V106.182H352.466V87.2727ZM447.205 30.9091L466.295 96.5455H467.023L486.114 30.9091H514.659L483.932 124H449.386L418.659 30.9091H447.205ZM523.625 124V30.9091H590.716V51.2727H548.898V67.2727H587.261V87.6364H548.898V103.636H590.534V124H523.625ZM603.25 124V30.9091H643.432C650.341 30.9091 656.386 32.1667 661.568 34.6818C666.75 37.197 670.78 40.8182 673.659 45.5455C676.538 50.2727 677.977 55.9394 677.977 62.5455C677.977 69.2121 676.492 74.8333 673.523 79.4091C670.583 83.9848 666.447 87.4394 661.114 89.7727C655.811 92.1061 649.614 93.2727 642.523 93.2727H618.523V73.6364H637.432C640.402 73.6364 642.932 73.2727 645.023 72.5455C647.144 71.7879 648.765 70.5909 649.886 68.9545C651.038 67.3182 651.614 65.1818 651.614 62.5455C651.614 59.8788 651.038 57.7121 649.886 56.0455C648.765 54.3485 647.144 53.1061 645.023 52.3182C642.932 51.5 640.402 51.0909 637.432 51.0909H628.523V124H603.25ZM657.795 81.2727L681.068 124H653.614L630.886 81.2727H657.795Z" fill="white"/>
<path d="M83.4965 70.5714C82.596 77.2655 82.9232 84.1121 84.4556 90.6415C85.988 97.1709 88.6894 103.229 92.3745 108.399C96.0595 113.569 100.641 117.73 105.804 120.595C110.968 123.461 116.591 124.963 122.289 124.999C127.986 125.036 133.623 123.605 138.811 120.805C144 118.006 148.619 113.904 152.35 108.781C156.082 103.658 158.837 97.6348 160.429 91.1252C162.02 84.6157 162.408 77.7737 161.568 71.0685L122.5 78L83.4965 70.5714Z" fill="#A244FF" fill-opacity="0.18"/>
<ellipse cx="123.193" cy="90.5892" rx="9.70175" ry="5.875" fill="#A244FF"/>
<rect x="118.342" y="92.3518" width="9.70175" height="11.75" fill="#A244FF"/>
<path d="M150.431 111.234C155.955 104.661 159.717 96.2864 161.241 87.1692C162.765 78.0521 161.983 68.602 158.993 60.0139C156.004 51.4258 150.941 44.0854 144.445 38.9209C137.949 33.7565 130.312 31 122.5 31C114.688 31 107.051 33.7565 100.555 38.9209C94.0592 44.0854 88.9964 51.4257 86.0068 60.0139C83.0171 68.602 82.2349 78.0521 83.759 87.1692C85.2831 96.2863 89.0451 104.661 94.5693 111.234L103.412 100.713C99.6362 96.2207 97.0651 90.4973 96.0235 84.2665C94.9819 78.0356 95.5165 71.5772 97.5597 65.7079C99.6029 59.8386 103.063 54.822 107.502 51.2925C111.942 47.763 117.161 45.8791 122.5 45.8791C127.839 45.8791 133.058 47.763 137.498 51.2925C141.937 54.822 145.397 59.8386 147.44 65.7079C149.484 71.5772 150.018 78.0356 148.976 84.2665C147.935 90.4973 145.364 96.2207 141.588 100.713L150.431 111.234Z" fill="#A244FF"/>
<rect x="88.5439" y="71.2858" width="69.2982" height="7.55357" fill="#A244FF"/>
</svg>
