<svg width="294" height="168" viewBox="0 0 294 168" fill="none" xmlns="http://www.w3.org/2000/svg">
<path d="M7.776 104V26.672H34.992C38.664 26.672 42.084 27.284 45.252 28.508C48.492 29.66 51.3 31.316 53.676 33.476C56.052 35.636 57.924 38.228 59.292 41.252C60.66 44.204 61.344 47.48 61.344 51.08C61.344 54.752 60.66 58.1 59.292 61.124C57.924 64.076 56.052 66.632 53.676 68.792C51.3 70.952 48.492 72.644 45.252 73.868C42.084 75.02 38.664 75.596 34.992 75.596H22.356V104H7.776ZM35.208 61.772C39.024 61.772 41.904 60.692 43.848 58.532C45.792 56.372 46.764 53.888 46.764 51.08C46.764 49.712 46.512 48.38 46.008 47.084C45.576 45.788 44.856 44.672 43.848 43.736C42.912 42.728 41.724 41.936 40.284 41.36C38.844 40.784 37.152 40.496 35.208 40.496H22.356V61.772H35.208ZM107.247 105.728C101.487 105.728 96.1234 104.684 91.1554 102.596C86.2594 100.508 82.0114 97.664 78.4114 94.064C74.8114 90.392 71.9674 86.108 69.8794 81.212C67.8634 76.244 66.8554 70.952 66.8554 65.336C66.8554 59.72 67.8634 54.464 69.8794 49.568C71.9674 44.6 74.8114 40.316 78.4114 36.716C82.0114 33.044 86.2594 30.164 91.1554 28.076C96.1234 25.988 101.487 24.944 107.247 24.944C113.007 24.944 118.335 25.988 123.231 28.076C128.199 30.164 132.483 33.044 136.083 36.716C139.683 40.316 142.491 44.6 144.507 49.568C146.595 54.464 147.639 59.72 147.639 65.336C147.639 70.952 146.595 76.244 144.507 81.212C142.491 86.108 139.683 90.392 136.083 94.064C132.483 97.664 128.199 100.508 123.231 102.596C118.335 104.684 113.007 105.728 107.247 105.728ZM107.247 91.904C110.847 91.904 114.195 91.256 117.291 89.96C120.459 88.664 123.195 86.864 125.499 84.56C127.875 82.256 129.711 79.484 131.007 76.244C132.375 72.932 133.059 69.296 133.059 65.336C133.059 61.376 132.375 57.776 131.007 54.536C129.711 51.224 127.875 48.416 125.499 46.112C123.195 43.808 120.459 42.008 117.291 40.712C114.195 39.416 110.847 38.768 107.247 38.768C103.647 38.768 100.263 39.416 97.0954 40.712C93.9994 42.008 91.2634 43.808 88.8874 46.112C86.5834 48.416 84.7474 51.224 83.3794 54.536C82.0834 57.776 81.4354 61.376 81.4354 65.336C81.4354 69.296 82.0834 72.932 83.3794 76.244C84.7474 79.484 86.5834 82.256 88.8874 84.56C91.2634 86.864 93.9994 88.664 97.0954 89.96C100.263 91.256 103.647 91.904 107.247 91.904ZM159.44 104V26.672H186.656C190.328 26.672 193.748 27.284 196.916 28.508C200.156 29.66 202.964 31.316 205.34 33.476C207.716 35.636 209.588 38.228 210.956 41.252C212.324 44.204 213.008 47.48 213.008 51.08C213.008 54.752 212.324 58.1 210.956 61.124C209.588 64.076 207.716 66.632 205.34 68.792C202.964 70.952 200.156 72.644 196.916 73.868C193.748 75.02 190.328 75.596 186.656 75.596H174.02V104H159.44ZM186.872 61.772C190.688 61.772 193.568 60.692 195.512 58.532C197.456 56.372 198.428 53.888 198.428 51.08C198.428 49.712 198.176 48.38 197.672 47.084C197.24 45.788 196.52 44.672 195.512 43.736C194.576 42.728 193.388 41.936 191.948 41.36C190.508 40.784 188.816 40.496 186.872 40.496H174.02V61.772H186.872Z" fill="white"/>
<rect x="273.089" y="26.0027" width="15" height="179.741" transform="rotate(43.2211 273.089 26.0027)" fill="#7F22FE"/>
<rect width="15" height="94.2753" transform="matrix(-0.838671 0.544639 0.544639 0.838671 235.803 15.6155)" fill="#7F22FE"/>
</svg>
