<svg width="952" height="316" viewBox="0 0 952 316" fill="none" xmlns="http://www.w3.org/2000/svg">
<g clip-path="url(#clip0_581_566)">
<path d="M366.1 174.8C356.393 174.8 348.927 173.12 343.7 169.76C338.473 166.307 335.86 161.267 335.86 154.64C335.86 151.28 336.98 148.527 339.22 146.38C341.553 144.14 344.54 143.02 348.18 143.02C350.607 143.113 352.287 143.72 353.22 144.84C354.247 145.96 354.76 146.8 354.76 147.36C354.76 147.547 354.34 147.873 353.5 148.34C352.66 148.713 351.82 149.46 350.98 150.58C350.14 151.607 349.72 153.24 349.72 155.48C349.72 159.68 351.027 163.04 353.64 165.56C356.253 167.987 360.407 169.2 366.1 169.2C370.113 169.2 373.52 168.453 376.32 166.96C379.213 165.373 381.407 163.367 382.9 160.94C384.393 158.42 385.14 155.853 385.14 153.24C385.14 149.32 384.02 146.1 381.78 143.58C379.54 141.06 376.6 138.913 372.96 137.14C369.413 135.273 365.633 133.5 361.62 131.82C357.607 130.14 353.78 128.227 350.14 126.08C346.593 123.933 343.653 121.273 341.32 118.1C338.987 114.833 337.773 110.773 337.68 105.92C337.587 100.04 338.847 95.2804 341.46 91.6404C344.073 87.9071 347.713 85.2003 352.38 83.5203C357.047 81.747 362.227 80.8604 367.92 80.8604C372.12 80.8604 376.227 81.4671 380.24 82.6804C384.347 83.8937 387.707 85.807 390.32 88.4203C393.027 90.9403 394.38 94.3004 394.38 98.5004C394.38 101.86 393.213 104.66 390.88 106.9C388.64 109.047 385.7 110.12 382.06 110.12C379.633 109.933 377.907 109.327 376.88 108.3C375.947 107.18 375.48 106.34 375.48 105.78C375.48 105.5 376.04 105.173 377.16 104.8C378.28 104.333 379.4 103.587 380.52 102.56C381.64 101.44 382.2 99.8071 382.2 97.6604C382.2 94.1137 380.847 91.4071 378.14 89.5404C375.433 87.5804 372.073 86.6003 368.06 86.6003C361.993 86.6003 357.56 88.0471 354.76 90.9404C352.053 93.7404 350.7 96.9137 350.7 100.46C350.7 103.913 351.633 106.713 353.5 108.86C355.367 111.007 358.167 113.107 361.9 115.16C366.1 117.4 370.347 119.5 374.64 121.46C378.933 123.327 382.9 125.427 386.54 127.76C390.273 130.093 393.26 133.033 395.5 136.58C397.74 140.033 398.86 144.513 398.86 150.02C398.86 154.78 397.367 159.027 394.38 162.76C391.487 166.493 387.567 169.433 382.62 171.58C377.673 173.727 372.167 174.8 366.1 174.8ZM454.865 174.8C447.399 174.8 441.145 173.493 436.105 170.88C431.065 168.267 427.285 164.907 424.765 160.8C422.245 156.693 420.985 152.353 420.985 147.78V100.04C420.985 98.2671 420.799 96.5871 420.425 95.0004C420.145 93.3204 419.399 91.9671 418.185 90.9404C416.972 89.8204 414.872 89.2604 411.885 89.2604C410.952 89.2604 410.159 89.1671 409.505 88.9804C408.852 88.7937 408.479 87.9071 408.385 86.3204C408.385 85.5737 408.572 84.8737 408.945 84.2204C409.319 83.5671 409.972 83.2403 410.905 83.2403C413.892 83.3336 416.692 83.427 419.305 83.5203C421.919 83.6136 424.625 83.6604 427.425 83.6604C433.119 83.6604 438.952 83.5203 444.925 83.2403C445.859 83.2403 446.512 83.5671 446.885 84.2204C447.259 84.8737 447.445 85.5737 447.445 86.3204C447.352 87.7204 447.072 88.5603 446.605 88.8403C446.139 89.1203 445.485 89.2604 444.645 89.2604C441.472 89.2604 439.185 89.7737 437.785 90.8004C436.479 91.7337 435.685 93.0404 435.405 94.7204C435.125 96.3071 434.939 98.0804 434.845 100.04V143.72C434.845 146.147 435.079 148.713 435.545 151.42C436.105 154.033 437.132 156.507 438.625 158.84C440.119 161.08 442.312 162.947 445.205 164.44C448.192 165.84 452.159 166.54 457.105 166.54C463.452 166.54 468.305 165.513 471.665 163.46C475.119 161.313 477.499 158.653 478.805 155.48C480.112 152.307 480.765 149.04 480.765 145.68V108.86C480.765 102.7 480.532 98.267 480.065 95.5603C479.599 92.7603 478.572 91.0336 476.985 90.3803C475.492 89.6336 473.159 89.2604 469.985 89.2604C469.052 89.2604 468.259 89.1671 467.605 88.9804C466.952 88.7937 466.579 87.9071 466.485 86.3204C466.485 85.5737 466.672 84.8737 467.045 84.2204C467.419 83.5671 468.072 83.2403 469.005 83.2403C471.992 83.3336 474.652 83.427 476.985 83.5203C479.319 83.6136 481.885 83.6604 484.685 83.6604C487.485 83.6604 490.052 83.6136 492.385 83.5203C494.719 83.427 497.379 83.3336 500.365 83.2403C501.299 83.2403 501.952 83.5671 502.325 84.2204C502.699 84.8737 502.885 85.5737 502.885 86.3204C502.792 87.7204 502.512 88.5603 502.045 88.8403C501.579 89.1203 500.925 89.2604 500.085 89.2604C497.565 89.2604 495.512 89.4004 493.925 89.6804C492.432 89.9604 491.265 90.707 490.425 91.9203C489.679 93.0403 489.165 94.907 488.885 97.5203C488.699 100.04 488.605 103.54 488.605 108.02V147.08C488.605 152.027 487.532 156.273 485.385 159.82C483.332 163.367 480.579 166.26 477.125 168.5C473.765 170.647 470.125 172.233 466.205 173.26C462.285 174.287 458.505 174.8 454.865 174.8ZM510.899 172.42C509.966 172.42 509.313 172.093 508.939 171.44C508.566 170.787 508.379 170.087 508.379 169.34C508.473 167.753 508.846 166.867 509.499 166.68C510.153 166.493 510.946 166.4 511.879 166.4C514.866 166.4 516.966 165.887 518.179 164.86C519.393 163.74 520.139 162.387 520.419 160.8C520.793 159.12 520.979 157.393 520.979 155.62V100.04C520.979 98.2671 520.793 96.5871 520.419 95.0004C520.139 93.3204 519.393 91.9671 518.179 90.9404C516.966 89.8204 514.866 89.2604 511.879 89.2604C510.946 89.2604 510.153 89.1671 509.499 88.9804C508.846 88.7937 508.473 87.9071 508.379 86.3204C508.379 85.5737 508.566 84.8737 508.939 84.2204C509.313 83.5671 509.966 83.2403 510.899 83.2403C513.886 83.3336 516.686 83.427 519.299 83.5203C521.913 83.6136 524.619 83.6604 527.419 83.6604C533.113 83.6604 538.946 83.5203 544.919 83.2403C545.853 83.2403 546.506 83.5671 546.879 84.2204C547.253 84.8737 547.439 85.5737 547.439 86.3204C547.346 87.9071 546.973 88.7937 546.319 88.9804C545.759 89.1671 544.966 89.2604 543.939 89.2604C541.046 89.2604 538.946 89.8204 537.639 90.9404C536.426 91.9671 535.679 93.3204 535.399 95.0004C535.119 96.5871 534.933 98.2671 534.839 100.04V125.38C536.426 125.007 538.246 124.073 540.299 122.58C542.446 120.993 544.593 119.313 546.739 117.54C550.286 114.273 553.739 110.773 557.099 107.04C560.459 103.213 563.586 99.5737 566.479 96.1204C570.213 91.9204 569.793 89.6804 565.219 89.4004C564.193 89.3071 563.539 88.3271 563.259 86.4604C563.259 85.6204 563.493 84.8737 563.959 84.2204C564.426 83.5671 565.033 83.2403 565.779 83.2403C568.206 83.427 570.773 83.5671 573.479 83.6604C576.186 83.6604 578.753 83.6604 581.179 83.6604C583.046 83.6604 585.193 83.6136 587.619 83.5203C590.046 83.427 592.146 83.3336 593.919 83.2403C594.853 83.2403 595.506 83.5671 595.879 84.2204C596.346 84.8737 596.579 85.6204 596.579 86.4604C596.486 87.8604 596.159 88.7004 595.599 88.9804C595.133 89.2604 594.526 89.4004 593.779 89.4004C590.326 89.2137 586.919 89.7737 583.559 91.0804C580.199 92.3871 576.606 94.9536 572.779 98.7803C571.566 100.087 569.979 101.767 568.019 103.82C566.153 105.78 564.146 107.833 561.999 109.98C559.946 112.127 557.986 114.133 556.119 116C554.346 117.867 552.899 119.407 551.779 120.62C550.659 121.833 550.099 122.44 550.099 122.44C555.606 129.067 561.159 135.18 566.759 140.78C572.453 146.38 577.306 151.327 581.319 155.62C584.493 158.793 587.059 161.313 589.019 163.18C591.073 164.953 593.686 166.027 596.859 166.4C597.606 166.493 598.353 166.633 599.099 166.82C599.846 166.913 600.266 167.753 600.359 169.34C600.359 170.087 600.173 170.787 599.799 171.44C599.426 172.093 598.773 172.42 597.839 172.42C595.879 172.327 594.339 172.233 593.219 172.14C592.193 172.14 591.166 172.093 590.139 172C589.206 172 587.806 172 585.939 172H576.979C571.846 166.307 566.573 160.427 561.159 154.36C555.839 148.293 550.099 141.713 543.939 134.62C542.259 132.66 540.673 131.26 539.179 130.42C537.779 129.58 536.333 129.113 534.839 129.02V155.62C534.933 157.393 535.119 159.12 535.399 160.8C535.679 162.387 536.426 163.74 537.639 164.86C538.946 165.887 541.046 166.4 543.939 166.4C544.966 166.4 545.759 166.493 546.319 166.68C546.973 166.867 547.346 167.753 547.439 169.34C547.439 170.087 547.253 170.787 546.879 171.44C546.506 172.093 545.853 172.42 544.919 172.42C538.946 172.14 533.159 172 527.559 172C524.759 172 522.006 172 519.299 172C516.686 172.093 513.886 172.233 510.899 172.42ZM644.928 174.8C638.114 174.8 631.954 173.54 626.448 171.02C620.941 168.5 616.228 165.093 612.308 160.8C608.388 156.507 605.401 151.653 603.348 146.24C601.294 140.733 600.268 134.993 600.268 129.02C600.268 121.273 601.574 114.413 604.188 108.44C606.894 102.467 610.441 97.4271 614.828 93.3204C619.214 89.2137 624.021 86.1337 629.248 84.0804C634.568 81.9337 639.794 80.8604 644.928 80.8604C651.928 80.8604 658.181 82.1204 663.688 84.6404C669.288 87.1604 674.048 90.5671 677.968 94.8604C681.888 99.1537 684.874 104.053 686.928 109.56C688.981 114.973 690.008 120.62 690.008 126.5C690.008 134.247 688.654 141.107 685.948 147.08C683.241 153.053 679.648 158.093 675.168 162.2C670.688 166.307 665.788 169.433 660.468 171.58C655.241 173.727 650.061 174.8 644.928 174.8ZM644.788 168.64C651.414 168.64 656.828 166.68 661.028 162.76C665.228 158.84 668.308 153.707 670.268 147.36C672.321 140.92 673.348 133.967 673.348 126.5C673.348 119.5 672.274 113.013 670.128 107.04C668.074 100.973 664.948 96.1204 660.748 92.4804C656.548 88.7471 651.228 86.8803 644.788 86.8803C638.254 86.8803 632.888 88.8404 628.688 92.7604C624.581 96.5871 621.548 101.673 619.588 108.02C617.628 114.273 616.648 121.133 616.648 128.6C616.648 135.6 617.628 142.18 619.588 148.34C621.641 154.407 624.768 159.307 628.968 163.04C633.168 166.773 638.441 168.64 644.788 168.64ZM747.877 174.8C741.063 174.8 734.903 173.54 729.397 171.02C723.89 168.5 719.177 165.093 715.257 160.8C711.337 156.507 708.35 151.653 706.297 146.24C704.243 140.733 703.217 134.993 703.217 129.02C703.217 121.273 704.523 114.413 707.137 108.44C709.843 102.467 713.39 97.4271 717.777 93.3204C722.163 89.2137 726.97 86.1337 732.197 84.0804C737.517 81.9337 742.743 80.8604 747.877 80.8604C754.877 80.8604 761.13 82.1204 766.637 84.6404C772.237 87.1604 776.997 90.5671 780.917 94.8604C784.837 99.1537 787.823 104.053 789.877 109.56C791.93 114.973 792.957 120.62 792.957 126.5C792.957 134.247 791.603 141.107 788.897 147.08C786.19 153.053 782.597 158.093 778.117 162.2C773.637 166.307 768.737 169.433 763.417 171.58C758.19 173.727 753.01 174.8 747.877 174.8ZM747.737 168.64C754.363 168.64 759.777 166.68 763.977 162.76C768.177 158.84 771.257 153.707 773.217 147.36C775.27 140.92 776.297 133.967 776.297 126.5C776.297 119.5 775.223 113.013 773.077 107.04C771.023 100.973 767.897 96.1204 763.697 92.4804C759.497 88.7471 754.177 86.8803 747.737 86.8803C741.203 86.8803 735.837 88.8404 731.637 92.7604C727.53 96.5871 724.497 101.673 722.537 108.02C720.577 114.273 719.597 121.133 719.597 128.6C719.597 135.6 720.577 142.18 722.537 148.34C724.59 154.407 727.717 159.307 731.917 163.04C736.117 166.773 741.39 168.64 747.737 168.64ZM806.625 172.42C805.692 172.42 805.039 172.093 804.665 171.44C804.292 170.787 804.105 170.087 804.105 169.34C804.199 167.753 804.572 166.867 805.225 166.68C805.879 166.493 806.672 166.4 807.605 166.4C810.592 166.4 812.645 165.887 813.765 164.86C814.979 163.74 815.725 162.387 816.005 160.8C816.285 159.12 816.425 157.393 816.425 155.62L816.705 100.04C816.705 95.6537 815.959 92.8537 814.465 91.6404C812.972 90.4271 810.592 89.4936 807.325 88.8403C805.925 88.5603 804.992 88.3271 804.525 88.1404C804.059 87.8604 803.825 87.0204 803.825 85.6204C803.825 84.0337 804.385 83.1936 805.505 83.1003C806.625 82.9136 807.932 82.8204 809.425 82.8204C814.652 82.8204 818.852 83.2404 822.025 84.0804C825.292 84.9204 828.139 86.4136 830.565 88.5603C833.085 90.707 835.792 93.7404 838.685 97.6604L877.045 148.06H877.465L877.185 100.04C877.185 98.2671 877.045 96.5871 876.765 95.0004C876.485 93.3204 875.739 91.9671 874.525 90.9404C873.405 89.8204 871.352 89.2604 868.365 89.2604C867.432 89.2604 866.639 89.1671 865.985 88.9804C865.332 88.7937 864.912 87.9071 864.725 86.3204C864.725 85.5737 864.912 84.8737 865.285 84.2204C865.752 83.5671 866.405 83.2403 867.245 83.2403C869.299 83.3336 870.932 83.427 872.145 83.5203C873.452 83.5203 874.712 83.5671 875.925 83.6604C877.232 83.6604 878.819 83.6604 880.685 83.6604C882.552 83.6604 884.092 83.6604 885.305 83.6604C886.519 83.5671 887.732 83.5203 888.945 83.5203C890.252 83.427 891.885 83.3336 893.845 83.2403C894.779 83.2403 895.432 83.5671 895.805 84.2204C896.179 84.8737 896.365 85.5737 896.365 86.3204C896.272 87.9071 895.899 88.7937 895.245 88.9804C894.685 89.1671 893.892 89.2604 892.865 89.2604C889.972 89.2604 887.919 89.8204 886.705 90.9404C885.492 91.9671 884.745 93.3204 884.465 95.0004C884.279 96.5871 884.139 98.2671 884.045 100.04L883.765 170.6C883.672 171.347 883.205 171.813 882.365 172C881.619 172.28 880.919 172.42 880.265 172.42C878.492 172.42 877.139 171.813 876.205 170.6L823.425 100.04H823.005L823.285 155.62C823.379 157.393 823.519 159.12 823.705 160.8C823.985 162.387 824.732 163.74 825.945 164.86C827.159 165.887 829.212 166.4 832.105 166.4C833.132 166.4 833.972 166.493 834.625 166.68C835.279 166.867 835.652 167.753 835.745 169.34C835.745 170.087 835.512 170.787 835.045 171.44C834.672 172.093 834.065 172.42 833.225 172.42C831.265 172.327 829.585 172.233 828.185 172.14C826.879 172.14 825.572 172.093 824.265 172C823.052 172 821.512 172 819.645 172C817.779 172 816.239 172 815.025 172C813.905 172.093 812.739 172.14 811.525 172.14C810.312 172.233 808.679 172.327 806.625 172.42Z" fill="white"/>
<path d="M332.84 240.192C332.413 240.192 332.115 240.043 331.944 239.744C331.773 239.445 331.688 239.125 331.688 238.784C331.731 238.059 331.901 237.653 332.2 237.568C332.499 237.483 332.861 237.44 333.288 237.44C334.653 237.44 335.613 237.205 336.168 236.736C336.723 236.224 337.064 235.605 337.192 234.88C337.363 234.112 337.448 233.323 337.448 232.512V207.104C337.448 206.293 337.363 205.525 337.192 204.8C337.064 204.032 336.723 203.413 336.168 202.944C335.613 202.432 334.653 202.176 333.288 202.176C332.861 202.176 332.499 202.133 332.2 202.048C331.901 201.963 331.731 201.557 331.688 200.832C331.688 200.491 331.773 200.171 331.944 199.872C332.115 199.573 332.413 199.424 332.84 199.424C334.205 199.467 335.485 199.509 336.68 199.552C337.875 199.595 339.112 199.616 340.392 199.616H349.416C351.891 199.616 353.832 199.808 355.24 200.192C356.691 200.533 357.949 201.045 359.016 201.728C360.125 202.453 361 203.456 361.64 204.736C362.28 205.973 362.6 207.339 362.6 208.832C362.6 210.752 362.152 212.373 361.256 213.696C360.36 214.976 359.229 216 357.864 216.768C356.541 217.493 355.24 218.005 353.96 218.304V218.496C356.221 218.453 358.227 218.859 359.976 219.712C361.725 220.565 363.112 221.696 364.136 223.104C365.16 224.512 365.693 226.048 365.736 227.712C365.821 230.144 365.309 232.149 364.2 233.728C363.091 235.307 361.64 236.565 359.848 237.504C358.099 238.443 356.179 239.104 354.088 239.488C352.04 239.872 350.056 240.064 348.136 240.064L340.456 240C339.176 240 337.917 240 336.68 240C335.485 240.043 334.205 240.107 332.84 240.192ZM343.784 217.216H346.472C347.325 217.216 348.285 217.173 349.352 217.088C350.419 217.003 351.443 216.747 352.424 216.32C353.405 215.851 354.195 215.104 354.792 214.08C355.432 213.013 355.752 211.52 355.752 209.6C355.752 207.339 355.197 205.504 354.088 204.096C353.021 202.688 351.08 201.984 348.264 201.984H343.784V217.216ZM348.392 237.504C350.312 237.461 352.061 237.141 353.64 236.544C355.219 235.947 356.477 234.944 357.416 233.536C358.355 232.128 358.824 230.187 358.824 227.712C358.696 226.347 358.227 225.067 357.416 223.872C356.648 222.677 355.368 221.696 353.576 220.928C351.827 220.16 349.437 219.776 346.408 219.776H343.784V232.512C343.784 234.645 344.104 236.011 344.744 236.608C345.384 237.205 346.6 237.504 348.392 237.504ZM370.184 240.192C369.885 240.192 369.629 240.064 369.416 239.808C369.245 239.509 369.16 239.211 369.16 238.912C369.202 238.272 369.352 237.931 369.608 237.888C369.906 237.803 370.248 237.76 370.632 237.76C371.826 237.76 372.637 237.568 373.064 237.184C373.533 236.757 373.789 236.203 373.832 235.52C373.917 234.837 373.96 234.133 373.96 233.408V202.176C373.96 201.408 373.917 200.704 373.832 200.064C373.789 199.381 373.554 198.848 373.128 198.464C372.701 198.037 371.89 197.824 370.696 197.824C370.312 197.824 369.949 197.781 369.608 197.696C369.309 197.568 369.16 197.184 369.16 196.544C369.16 195.904 369.501 195.52 370.184 195.392C372.146 195.093 373.64 194.795 374.664 194.496C375.73 194.197 376.541 193.941 377.095 193.728C377.65 193.515 378.141 193.387 378.568 193.344C378.909 193.301 379.186 193.365 379.4 193.536C379.656 193.707 379.784 194.048 379.784 194.56V233.408C379.784 234.133 379.805 234.837 379.848 235.52C379.933 236.203 380.189 236.757 380.616 237.184C381.085 237.568 381.917 237.76 383.112 237.76C383.496 237.76 383.816 237.803 384.072 237.888C384.37 237.931 384.541 238.272 384.583 238.912C384.583 239.211 384.498 239.509 384.328 239.808C384.157 240.064 383.901 240.192 383.56 240.192C382.322 240.107 381.17 240.043 380.104 240C379.08 240 377.992 240 376.84 240C375.688 240 374.6 240 373.576 240C372.552 240.043 371.421 240.107 370.184 240.192ZM403.163 240.768C399.877 240.768 397.104 240.064 394.843 238.656C392.624 237.248 390.96 235.371 389.851 233.024C388.741 230.677 388.187 228.117 388.187 225.344C388.187 223.467 388.507 221.653 389.147 219.904C389.829 218.112 390.789 216.491 392.027 215.04C393.264 213.547 394.757 212.373 396.507 211.52C398.256 210.667 400.24 210.24 402.458 210.24C406.384 210.24 409.328 211.264 411.291 213.312C413.296 215.317 414.448 217.877 414.747 220.992C414.747 222.485 414.32 223.467 413.467 223.936C412.656 224.405 411.589 224.64 410.267 224.64H394.715C394.715 227.115 395.056 229.333 395.739 231.296C396.421 233.216 397.488 234.752 398.939 235.904C400.432 237.013 402.395 237.568 404.827 237.568C406.619 237.568 408.155 237.184 409.435 236.416C410.715 235.648 411.952 234.304 413.147 232.384C413.488 231.957 413.957 231.936 414.555 232.32C414.896 232.491 415.109 232.768 415.195 233.152C415.28 233.493 415.237 233.792 415.067 234.048C413.744 236.139 412.08 237.781 410.075 238.976C408.069 240.171 405.765 240.768 403.163 240.768ZM394.715 222.208H405.147C406.171 222.208 406.981 222.016 407.579 221.632C408.219 221.205 408.56 220.501 408.603 219.52C408.603 217.685 408.091 216.064 407.067 214.656C406.085 213.205 404.549 212.48 402.458 212.48C400.325 212.48 398.533 213.333 397.083 215.04C395.675 216.747 394.885 219.136 394.715 222.208ZM431.64 240.768C428.354 240.768 425.602 240.192 423.384 239.04C421.208 237.845 420.12 236.139 420.12 233.92C420.12 232.683 420.482 231.68 421.208 230.912C421.976 230.144 422.957 229.76 424.152 229.76C424.92 229.76 425.538 229.973 426.008 230.4C426.52 230.784 426.776 231.061 426.776 231.232C426.776 231.36 426.52 231.659 426.008 232.128C425.538 232.555 425.304 233.259 425.304 234.24C425.304 235.435 425.858 236.437 426.968 237.248C428.12 238.016 429.848 238.4 432.152 238.4C434.157 238.4 435.714 237.973 436.824 237.12C437.976 236.224 438.552 234.987 438.552 233.408C438.552 232.128 438.125 231.147 437.272 230.464C436.461 229.739 435.394 229.163 434.072 228.736C432.792 228.309 431.405 227.883 429.912 227.456C428.461 227.029 427.074 226.496 425.752 225.856C424.429 225.216 423.341 224.341 422.488 223.232C421.677 222.08 421.272 220.565 421.272 218.688C421.272 216.768 421.848 215.189 423 213.952C424.152 212.715 425.624 211.797 427.416 211.2C429.208 210.56 431.021 210.24 432.856 210.24C434.434 210.24 435.928 210.475 437.336 210.944C438.744 211.371 439.896 212.032 440.792 212.928C441.73 213.824 442.2 214.955 442.2 216.32C442.2 217.387 441.858 218.347 441.176 219.2C440.493 220.053 439.554 220.48 438.36 220.48C437.592 220.48 436.952 220.288 436.44 219.904C435.97 219.477 435.736 219.179 435.736 219.008C435.736 218.923 435.885 218.773 436.184 218.56C436.525 218.304 436.845 217.984 437.144 217.6C437.442 217.173 437.592 216.64 437.592 216C437.506 214.763 436.909 213.845 435.8 213.248C434.69 212.651 433.453 212.352 432.088 212.352C430.594 212.352 429.208 212.715 427.928 213.44C426.648 214.165 426.008 215.211 426.008 216.576C426.008 217.813 426.264 218.773 426.776 219.456C427.33 220.139 428.184 220.736 429.336 221.248C430.53 221.717 432.066 222.251 433.944 222.848C435.821 223.445 437.464 224.064 438.872 224.704C440.322 225.344 441.432 226.197 442.2 227.264C443.01 228.288 443.416 229.696 443.416 231.488C443.416 233.28 442.904 234.88 441.88 236.288C440.856 237.696 439.448 238.805 437.656 239.616C435.906 240.384 433.901 240.768 431.64 240.768ZM460.015 240.768C456.729 240.768 453.977 240.192 451.759 239.04C449.583 237.845 448.495 236.139 448.495 233.92C448.495 232.683 448.857 231.68 449.583 230.912C450.351 230.144 451.332 229.76 452.527 229.76C453.295 229.76 453.913 229.973 454.383 230.4C454.895 230.784 455.151 231.061 455.151 231.232C455.151 231.36 454.895 231.659 454.383 232.128C453.913 232.555 453.679 233.259 453.679 234.24C453.679 235.435 454.233 236.437 455.343 237.248C456.495 238.016 458.223 238.4 460.527 238.4C462.532 238.4 464.089 237.973 465.199 237.12C466.351 236.224 466.927 234.987 466.927 233.408C466.927 232.128 466.5 231.147 465.647 230.464C464.836 229.739 463.769 229.163 462.447 228.736C461.167 228.309 459.78 227.883 458.287 227.456C456.836 227.029 455.449 226.496 454.127 225.856C452.804 225.216 451.716 224.341 450.863 223.232C450.052 222.08 449.647 220.565 449.647 218.688C449.647 216.768 450.223 215.189 451.375 213.952C452.527 212.715 453.999 211.797 455.791 211.2C457.583 210.56 459.396 210.24 461.231 210.24C462.809 210.24 464.303 210.475 465.711 210.944C467.119 211.371 468.271 212.032 469.167 212.928C470.105 213.824 470.575 214.955 470.575 216.32C470.575 217.387 470.233 218.347 469.551 219.2C468.868 220.053 467.929 220.48 466.735 220.48C465.967 220.48 465.327 220.288 464.815 219.904C464.345 219.477 464.111 219.179 464.111 219.008C464.111 218.923 464.26 218.773 464.559 218.56C464.9 218.304 465.22 217.984 465.519 217.6C465.817 217.173 465.967 216.64 465.967 216C465.881 214.763 465.284 213.845 464.175 213.248C463.065 212.651 461.828 212.352 460.463 212.352C458.969 212.352 457.583 212.715 456.303 213.44C455.023 214.165 454.383 215.211 454.383 216.576C454.383 217.813 454.639 218.773 455.151 219.456C455.705 220.139 456.559 220.736 457.711 221.248C458.905 221.717 460.441 222.251 462.319 222.848C464.196 223.445 465.839 224.064 467.247 224.704C468.697 225.344 469.807 226.197 470.575 227.264C471.385 228.288 471.791 229.696 471.791 231.488C471.791 233.28 471.279 234.88 470.255 236.288C469.231 237.696 467.823 238.805 466.031 239.616C464.281 240.384 462.276 240.768 460.015 240.768ZM477.574 240.192C477.275 240.192 477.019 240.064 476.806 239.808C476.635 239.509 476.549 239.211 476.549 238.912C476.635 238.272 476.806 237.931 477.062 237.888C477.318 237.803 477.659 237.76 478.086 237.76C479.28 237.76 480.091 237.568 480.518 237.184C480.944 236.757 481.179 236.203 481.222 235.52C481.307 234.837 481.35 234.133 481.35 233.408V218.752C481.35 217.984 481.307 217.28 481.222 216.64C481.179 215.957 480.944 215.424 480.518 215.04C480.091 214.613 479.28 214.4 478.086 214.4C477.702 214.4 477.339 214.357 476.998 214.272C476.699 214.144 476.549 213.76 476.549 213.12C476.549 212.48 476.891 212.096 477.574 211.968C479.536 211.669 481.03 211.371 482.054 211.072C483.12 210.773 483.931 210.517 484.486 210.304C485.04 210.091 485.531 209.963 485.958 209.92C486.299 209.877 486.576 209.941 486.79 210.112C487.046 210.283 487.174 210.624 487.174 211.136V233.408C487.174 234.133 487.195 234.837 487.238 235.52C487.323 236.203 487.579 236.757 488.006 237.184C488.475 237.568 489.307 237.76 490.502 237.76C490.886 237.76 491.206 237.803 491.462 237.888C491.76 237.931 491.931 238.272 491.974 238.912C491.974 239.211 491.888 239.509 491.718 239.808C491.547 240.064 491.291 240.192 490.95 240.192C489.712 240.107 488.56 240.043 487.494 240C486.47 240 485.382 240 484.23 240C483.078 240 481.99 240 480.966 240C479.942 240.043 478.811 240.107 477.574 240.192ZM483.91 202.816C482.715 202.816 481.712 202.453 480.902 201.728C480.091 200.96 479.686 200.021 479.686 198.912C479.686 197.931 480.176 197.056 481.158 196.288C482.139 195.52 483.248 195.136 484.486 195.136C485.552 195.136 486.427 195.52 487.11 196.288C487.792 197.013 488.134 197.952 488.134 199.104C488.134 200.128 487.728 201.003 486.918 201.728C486.107 202.453 485.104 202.816 483.91 202.816ZM496.199 240.192C495.9 240.192 495.644 240.064 495.431 239.808C495.26 239.509 495.174 239.211 495.174 238.912C495.26 238.272 495.431 237.931 495.687 237.888C495.943 237.803 496.284 237.76 496.711 237.76C497.905 237.76 498.716 237.568 499.143 237.184C499.569 236.757 499.804 236.203 499.847 235.52C499.932 234.837 499.975 234.133 499.975 233.408V218.752C499.975 217.984 499.932 217.28 499.847 216.64C499.804 215.957 499.569 215.424 499.143 215.04C498.716 214.613 497.905 214.4 496.711 214.4C496.327 214.4 495.964 214.357 495.623 214.272C495.324 214.144 495.174 213.76 495.174 213.12C495.174 212.48 495.516 212.096 496.199 211.968C498.161 211.669 499.655 211.371 500.679 211.072C501.745 210.773 502.535 210.517 503.047 210.304C503.601 210.091 504.092 209.963 504.519 209.92C504.86 209.877 505.137 209.941 505.351 210.112C505.607 210.283 505.735 210.624 505.735 211.136V215.168H505.927C506.78 214.357 507.655 213.589 508.551 212.864C509.447 212.096 510.492 211.477 511.687 211.008C512.924 210.496 514.439 210.24 516.231 210.24C519.132 210.24 521.436 211.115 523.143 212.864C524.849 214.613 525.703 216.917 525.703 219.776V233.408C525.703 234.133 525.724 234.837 525.767 235.52C525.852 236.203 526.108 236.757 526.535 237.184C527.004 237.568 527.836 237.76 529.031 237.76C529.415 237.76 529.735 237.803 529.991 237.888C530.289 237.931 530.46 238.272 530.503 238.912C530.503 239.211 530.417 239.509 530.247 239.808C530.076 240.064 529.82 240.192 529.479 240.192C528.241 240.107 527.089 240.043 526.023 240C524.999 240 523.911 240 522.759 240C521.607 240 520.519 240 519.495 240C518.471 240.043 517.34 240.107 516.103 240.192C515.804 240.192 515.548 240.064 515.335 239.808C515.164 239.509 515.079 239.211 515.079 238.912C515.121 238.272 515.271 237.931 515.527 237.888C515.825 237.803 516.167 237.76 516.551 237.76C517.745 237.76 518.556 237.568 518.983 237.184C519.452 236.757 519.708 236.203 519.751 235.52C519.836 234.837 519.879 234.133 519.879 233.408V219.84C519.879 218.432 519.559 217.28 518.919 216.384C518.321 215.488 517.553 214.827 516.615 214.4C515.676 213.973 514.716 213.76 513.735 213.76C512.284 213.76 511.004 214.037 509.895 214.592C508.785 215.104 507.889 215.701 507.207 216.384C506.524 217.067 506.055 217.664 505.799 218.176V233.408C505.799 234.133 505.82 234.837 505.863 235.52C505.948 236.203 506.204 236.757 506.631 237.184C507.1 237.568 507.932 237.76 509.127 237.76C509.511 237.76 509.831 237.803 510.087 237.888C510.385 237.931 510.556 238.272 510.599 238.912C510.599 239.211 510.513 239.509 510.343 239.808C510.172 240.064 509.916 240.192 509.575 240.192C508.337 240.107 507.185 240.043 506.119 240C505.095 240 504.007 240 502.855 240C501.703 240 500.615 240 499.591 240C498.567 240.043 497.436 240.107 496.199 240.192ZM546.607 253.952C537.604 253.952 533.103 251.392 533.103 246.272C533.103 244.864 533.551 243.605 534.447 242.496C535.343 241.429 536.538 240.896 538.031 240.896C539.012 240.896 539.823 241.152 540.463 241.664C541.103 242.219 541.423 242.603 541.423 242.816C541.423 242.901 541.252 243.093 540.911 243.392C540.612 243.691 540.292 244.096 539.951 244.608C539.652 245.12 539.503 245.803 539.503 246.656C539.503 249.941 542.319 251.584 547.951 251.584C551.151 251.584 553.626 251.029 555.375 249.92C557.167 248.811 558.063 247.125 558.063 244.864C558.063 243.627 557.658 242.688 556.847 242.048C556.079 241.408 555.034 240.96 553.711 240.704C552.431 240.448 551.002 240.277 549.423 240.192C547.844 240.149 546.244 240.107 544.623 240.064C543.044 240.021 541.572 239.893 540.207 239.68C538.714 239.424 537.455 238.933 536.431 238.208C535.45 237.44 534.959 236.203 534.959 234.496C534.959 232.917 535.514 231.552 536.623 230.4C537.775 229.205 539.482 228.608 541.743 228.608C539.012 227.541 537.178 226.24 536.239 224.704C535.343 223.168 534.895 221.589 534.895 219.968C534.895 218.133 535.407 216.491 536.431 215.04C537.498 213.547 538.948 212.373 540.783 211.52C542.66 210.624 544.815 210.176 547.247 210.176C548.442 210.176 549.679 210.283 550.959 210.496C552.282 210.667 553.412 210.987 554.351 211.456L563.119 209.792C563.588 209.749 563.908 209.899 564.079 210.24C564.25 210.581 564.335 210.944 564.335 211.328C564.335 211.883 564.25 212.437 564.079 212.992C563.908 213.504 563.674 213.76 563.375 213.76L557.039 213.504V213.632C557.764 214.357 558.383 215.317 558.895 216.512C559.407 217.707 559.663 218.837 559.663 219.904C559.663 221.952 559.066 223.723 557.871 225.216C556.719 226.709 555.226 227.861 553.391 228.672C551.599 229.44 549.722 229.824 547.759 229.824H544.943C542.724 229.824 541.103 230.037 540.079 230.464C539.098 230.891 538.607 231.595 538.607 232.576C538.607 233.344 538.863 233.941 539.375 234.368C539.93 234.752 540.911 234.987 542.319 235.072L551.087 235.392C555.652 235.563 558.895 236.288 560.815 237.568C562.778 238.848 563.759 240.747 563.759 243.264C563.759 245.525 563.034 247.445 561.583 249.024C560.175 250.645 558.17 251.861 555.567 252.672C553.007 253.525 550.02 253.952 546.607 253.952ZM547.247 227.968C549.21 227.968 550.81 227.285 552.047 225.92C553.284 224.512 553.903 222.507 553.903 219.904C553.903 217.515 553.263 215.637 551.983 214.272C550.746 212.864 549.146 212.16 547.183 212.16C545.306 212.16 543.727 212.843 542.447 214.208C541.21 215.531 540.591 217.387 540.591 219.776C540.591 222.379 541.21 224.405 542.447 225.856C543.727 227.264 545.327 227.968 547.247 227.968ZM592.949 241.088C591.669 241.088 590.453 240.768 589.301 240.128C588.149 239.488 587.189 238.507 586.421 237.184C585.696 235.861 585.333 234.197 585.333 232.192V213.376L581.621 213.504C581.322 213.504 581.088 213.397 580.917 213.184C580.789 212.928 580.725 212.651 580.725 212.352C580.725 211.499 581.024 211.008 581.621 210.88C583.2 210.581 584.394 210.091 585.205 209.408C586.016 208.683 586.634 207.829 587.061 206.848C587.53 205.867 587.957 204.8 588.341 203.648C588.469 203.307 588.661 203.093 588.917 203.008C589.173 202.88 589.45 202.816 589.749 202.816C590.005 202.816 590.282 202.88 590.581 203.008C590.922 203.136 591.093 203.371 591.093 203.712L590.645 211.008L598.133 210.56C598.517 210.517 598.773 210.624 598.901 210.88C599.029 211.136 599.093 211.435 599.093 211.776C599.093 212.203 599.008 212.629 598.837 213.056C598.709 213.483 598.538 213.696 598.325 213.696L591.157 213.504V232.96C591.157 234.197 591.413 235.328 591.925 236.352C592.48 237.376 593.461 237.888 594.869 237.888C595.338 237.888 595.872 237.845 596.469 237.76C597.066 237.675 597.706 237.483 598.389 237.184C598.56 237.099 598.73 237.035 598.901 236.992C599.072 236.907 599.242 236.864 599.413 236.864C599.754 236.864 600.01 237.013 600.181 237.312C600.352 237.568 600.501 237.845 600.629 238.144C600.757 238.528 600.65 238.827 600.309 239.04C598.986 239.893 597.77 240.448 596.661 240.704C595.552 240.96 594.314 241.088 592.949 241.088ZM620.911 240.768C617.924 240.768 615.3 240.064 613.039 238.656C610.82 237.248 609.092 235.413 607.855 233.152C606.618 230.891 605.999 228.48 605.999 225.92C605.999 223.403 606.447 221.163 607.343 219.2C608.239 217.237 609.412 215.595 610.863 214.272C612.356 212.949 613.978 211.947 615.727 211.264C617.476 210.581 619.204 210.24 620.911 210.24C623.898 210.24 626.5 210.944 628.719 212.352C630.98 213.76 632.73 215.595 633.967 217.856C635.204 220.117 635.823 222.528 635.823 225.088C635.823 227.605 635.354 229.845 634.415 231.808C633.519 233.771 632.324 235.413 630.831 236.736C629.38 238.059 627.78 239.061 626.031 239.744C624.282 240.427 622.575 240.768 620.911 240.768ZM620.911 238.4C623.002 238.4 624.644 237.781 625.839 236.544C627.076 235.307 627.951 233.685 628.463 231.68C629.018 229.632 629.295 227.435 629.295 225.088C629.295 222.827 629.018 220.757 628.463 218.88C627.908 217.003 627.012 215.488 625.775 214.336C624.538 213.184 622.916 212.608 620.911 212.608C618.82 212.608 617.156 213.227 615.919 214.464C614.682 215.659 613.807 217.259 613.295 219.264C612.783 221.227 612.527 223.403 612.527 225.792C612.527 228.011 612.783 230.08 613.295 232C613.85 233.92 614.746 235.477 615.983 236.672C617.22 237.824 618.863 238.4 620.911 238.4ZM658.832 253.952C657.594 253.952 656.421 253.675 655.312 253.12C654.245 252.565 653.392 251.819 652.752 250.88C652.111 249.984 651.791 249.003 651.791 247.936C651.834 246.784 652.09 245.888 652.559 245.248C652.986 244.651 653.477 244.224 654.032 243.968C654.586 243.755 655.056 243.627 655.44 243.584C655.824 243.541 655.973 243.52 655.888 243.52C656.698 243.52 657.317 243.669 657.744 243.968C658.17 244.309 658.384 244.587 658.384 244.8C658.384 244.885 658.213 245.077 657.872 245.376C657.573 245.717 657.402 246.293 657.36 247.104C657.317 247.872 657.552 248.619 658.064 249.344C658.576 250.069 659.365 250.432 660.432 250.432C661.626 250.432 662.714 249.984 663.696 249.088C664.677 248.235 665.552 247.168 666.32 245.888C667.088 244.608 667.749 243.371 668.304 242.176C668.602 241.237 668.581 240.256 668.24 239.232C667.216 236.928 666.213 234.475 665.232 231.872C664.25 229.269 663.29 226.752 662.352 224.32C661.456 221.888 660.56 219.755 659.664 217.92C658.981 216.341 658.32 215.232 657.68 214.592C657.04 213.909 656.08 213.483 654.799 213.312C654.245 213.227 653.861 213.141 653.648 213.056C653.477 212.971 653.37 212.651 653.328 212.096C653.285 211.371 653.477 210.987 653.904 210.944C654.373 210.859 654.928 210.795 655.568 210.752C658.213 210.624 660.282 211.008 661.776 211.904C663.269 212.8 664.485 214.315 665.424 216.448C666.021 217.771 666.682 219.413 667.408 221.376C668.133 223.339 668.901 225.323 669.712 227.328C670.522 229.333 671.312 231.147 672.08 232.768H672.272L678.544 216C678.97 214.763 678.992 213.995 678.608 213.696C678.224 213.397 677.392 213.248 676.112 213.248C675.728 213.248 675.408 213.227 675.152 213.184C674.896 213.099 674.746 212.736 674.704 212.096C674.704 211.84 674.768 211.563 674.896 211.264C675.066 210.965 675.301 210.816 675.6 210.816C676.837 210.859 677.904 210.901 678.8 210.944C679.696 210.987 680.698 211.008 681.808 211.008C682.576 211.008 683.194 211.008 683.664 211.008C684.133 210.965 684.624 210.944 685.136 210.944C685.648 210.901 686.309 210.859 687.12 210.816C687.461 210.816 687.696 210.965 687.824 211.264C687.994 211.563 688.08 211.84 688.08 212.096C688.037 212.736 687.866 213.099 687.568 213.184C687.312 213.227 687.013 213.248 686.672 213.248C685.264 213.248 684.133 213.504 683.28 214.016C682.469 214.528 681.765 215.531 681.168 217.024C681.168 217.024 680.933 217.579 680.464 218.688C680.037 219.797 679.461 221.248 678.736 223.04C678.01 224.832 677.242 226.731 676.432 228.736C675.621 230.699 674.853 232.576 674.128 234.368C673.402 236.16 672.805 237.632 672.336 238.784C671.866 239.936 671.61 240.555 671.568 240.64C671.013 241.963 670.33 243.392 669.52 244.928C668.752 246.507 667.834 247.957 666.768 249.28C665.744 250.645 664.57 251.755 663.248 252.608C661.925 253.504 660.453 253.952 658.832 253.952ZM704.286 240.768C701.299 240.768 698.675 240.064 696.414 238.656C694.195 237.248 692.467 235.413 691.23 233.152C689.993 230.891 689.374 228.48 689.374 225.92C689.374 223.403 689.822 221.163 690.718 219.2C691.614 217.237 692.787 215.595 694.238 214.272C695.731 212.949 697.353 211.947 699.102 211.264C700.851 210.581 702.579 210.24 704.286 210.24C707.273 210.24 709.875 210.944 712.094 212.352C714.355 213.76 716.105 215.595 717.342 217.856C718.579 220.117 719.198 222.528 719.198 225.088C719.198 227.605 718.729 229.845 717.79 231.808C716.894 233.771 715.699 235.413 714.206 236.736C712.755 238.059 711.155 239.061 709.406 239.744C707.657 240.427 705.95 240.768 704.286 240.768ZM704.286 238.4C706.377 238.4 708.019 237.781 709.214 236.544C710.451 235.307 711.326 233.685 711.838 231.68C712.393 229.632 712.67 227.435 712.67 225.088C712.67 222.827 712.393 220.757 711.838 218.88C711.283 217.003 710.387 215.488 709.15 214.336C707.913 213.184 706.291 212.608 704.286 212.608C702.195 212.608 700.531 213.227 699.294 214.464C698.057 215.659 697.182 217.259 696.67 219.264C696.158 221.227 695.902 223.403 695.902 225.792C695.902 228.011 696.158 230.08 696.67 232C697.225 233.92 698.121 235.477 699.358 236.672C700.595 237.824 702.238 238.4 704.286 238.4ZM737.173 240.768C734.271 240.768 731.967 239.893 730.26 238.144C728.554 236.395 727.701 234.091 727.701 231.232V219.392C727.701 218.624 727.658 217.92 727.573 217.28C727.53 216.597 727.295 216.064 726.869 215.68C726.442 215.253 725.631 215.04 724.437 215.04C724.053 215.04 723.69 214.997 723.349 214.912C723.05 214.784 722.901 214.4 722.901 213.76C722.901 213.12 723.242 212.736 723.924 212.608C725.887 212.309 727.381 212.011 728.405 211.712C729.471 211.413 730.282 211.157 730.837 210.944C731.391 210.731 731.882 210.603 732.309 210.56C732.65 210.517 732.927 210.581 733.141 210.752C733.397 210.923 733.525 211.264 733.525 211.776V231.168C733.525 232.576 733.823 233.728 734.421 234.624C735.061 235.52 735.85 236.181 736.789 236.608C737.727 237.035 738.687 237.248 739.669 237.248C741.162 237.248 742.463 236.992 743.573 236.48C744.682 235.925 745.578 235.307 746.261 234.624C746.943 233.899 747.391 233.301 747.605 232.832V219.392C747.605 218.624 747.562 217.92 747.477 217.28C747.434 216.597 747.199 216.064 746.773 215.68C746.346 215.253 745.535 215.04 744.341 215.04C743.957 215.04 743.594 214.997 743.253 214.912C742.954 214.784 742.805 214.4 742.805 213.76C742.805 213.12 743.146 212.736 743.829 212.608C745.791 212.309 747.285 212.011 748.309 211.712C749.375 211.413 750.186 211.157 750.741 210.944C751.295 210.731 751.786 210.603 752.213 210.56C752.554 210.517 752.831 210.581 753.045 210.752C753.301 210.923 753.429 211.264 753.429 211.776V233.92C753.429 236.437 755.114 237.696 758.485 237.696C758.954 237.696 759.253 237.824 759.381 238.08C759.509 238.336 759.573 238.613 759.573 238.912C759.573 239.509 759.21 239.872 758.485 240L748.181 240.704C747.882 240.704 747.711 240.576 747.669 240.32C747.626 240.064 747.605 239.765 747.605 239.424V235.84H747.477C746.666 236.608 745.791 237.376 744.853 238.144C743.957 238.912 742.89 239.531 741.653 240C740.458 240.512 738.965 240.768 737.173 240.768ZM763.074 240.192C762.775 240.192 762.519 240.064 762.306 239.808C762.135 239.509 762.049 239.211 762.049 238.912C762.135 238.272 762.306 237.931 762.562 237.888C762.818 237.803 763.159 237.76 763.586 237.76C764.78 237.76 765.591 237.568 766.018 237.184C766.444 236.757 766.679 236.203 766.722 235.52C766.807 234.837 766.85 234.133 766.85 233.408V218.752C766.85 217.984 766.807 217.28 766.722 216.64C766.679 215.957 766.444 215.424 766.018 215.04C765.591 214.613 764.78 214.4 763.586 214.4C763.202 214.4 762.839 214.357 762.498 214.272C762.199 214.144 762.049 213.76 762.049 213.12C762.049 212.48 762.391 212.096 763.074 211.968C765.036 211.669 766.53 211.371 767.554 211.072C768.62 210.773 769.41 210.517 769.922 210.304C770.476 210.091 770.967 209.963 771.394 209.92C771.735 209.877 772.012 209.941 772.226 210.112C772.482 210.283 772.61 210.624 772.61 211.136V215.104H772.802C774.252 213.696 775.746 212.544 777.282 211.648C778.818 210.709 780.226 210.24 781.506 210.24C782.999 210.24 784.13 210.795 784.898 211.904C785.708 213.013 786.114 214.187 786.114 215.424C786.114 216.491 785.772 217.536 785.09 218.56C784.407 219.541 783.383 220.032 782.018 220.032C781.335 220.032 780.78 219.904 780.354 219.648C779.97 219.349 779.756 219.136 779.714 219.008C779.714 218.923 779.906 218.667 780.29 218.24C780.716 217.813 780.93 217.28 780.93 216.64C780.93 215.872 780.716 215.253 780.29 214.784C779.906 214.315 779.372 214.08 778.69 214.08C777.964 214.08 777.026 214.443 775.874 215.168C774.764 215.893 773.698 216.768 772.674 217.792V233.408C772.674 234.133 772.695 234.837 772.738 235.52C772.823 236.203 773.079 236.757 773.506 237.184C773.975 237.568 774.807 237.76 776.002 237.76C776.386 237.76 776.706 237.803 776.962 237.888C777.26 237.931 777.431 238.272 777.474 238.912C777.474 239.211 777.388 239.509 777.218 239.808C777.047 240.064 776.791 240.192 776.45 240.192C775.212 240.107 774.06 240.043 772.994 240C771.97 240 770.882 240 769.73 240C768.578 240 767.49 240 766.466 240C765.442 240.043 764.311 240.107 763.074 240.192ZM828.767 240.32C828.511 240.32 828.255 240.256 827.999 240.128C827.743 240.043 827.551 239.893 827.423 239.68L813.023 207.104H812.831L812.959 232.512C813.002 233.323 813.066 234.112 813.151 234.88C813.279 235.605 813.62 236.224 814.175 236.736C814.73 237.205 815.668 237.44 816.991 237.44C817.46 237.44 817.844 237.483 818.143 237.568C818.442 237.653 818.612 238.059 818.655 238.784C818.655 239.125 818.548 239.445 818.335 239.744C818.164 240.043 817.887 240.192 817.503 240.192C816.607 240.149 815.882 240.107 815.327 240.064C814.772 240.064 814.239 240.043 813.727 240C813.215 240 812.532 240 811.679 240C810.399 240 809.354 240 808.543 240C807.775 240.043 806.708 240.107 805.343 240.192C804.916 240.192 804.618 240.043 804.447 239.744C804.276 239.445 804.191 239.125 804.191 238.784C804.234 238.059 804.404 237.653 804.703 237.568C805.002 237.483 805.364 237.44 805.791 237.44C807.156 237.44 808.095 237.205 808.607 236.736C809.162 236.224 809.503 235.605 809.631 234.88C809.759 234.112 809.823 233.323 809.823 232.512L809.951 207.104C809.951 205.739 809.802 204.736 809.503 204.096C809.204 203.413 808.735 202.944 808.095 202.688C807.455 202.389 806.644 202.155 805.663 201.984C805.066 201.856 804.639 201.749 804.383 201.664C804.17 201.579 804.063 201.195 804.063 200.512C804.063 199.787 804.319 199.403 804.831 199.36C805.343 199.275 805.94 199.232 806.623 199.232C808.714 199.232 810.548 199.403 812.127 199.744C813.748 200.085 815.156 200.747 816.351 201.728C817.546 202.667 818.527 204.096 819.295 206.016L830.303 230.72H830.495L843.103 199.616H846.751C848.031 199.616 849.268 199.595 850.463 199.552C851.7 199.509 853.002 199.467 854.367 199.424C854.794 199.424 855.092 199.573 855.263 199.872C855.434 200.171 855.519 200.491 855.519 200.832C855.476 201.557 855.306 201.963 855.007 202.048C854.708 202.133 854.346 202.176 853.919 202.176C852.596 202.176 851.636 202.432 851.039 202.944C850.484 203.413 850.143 204.032 850.015 204.8C849.887 205.525 849.802 206.293 849.759 207.104V232.512C849.802 233.323 849.887 234.112 850.015 234.88C850.143 235.605 850.484 236.224 851.039 236.736C851.636 237.205 852.596 237.44 853.919 237.44C854.346 237.44 854.708 237.483 855.007 237.568C855.306 237.653 855.476 238.059 855.519 238.784C855.519 239.125 855.434 239.445 855.263 239.744C855.092 240.043 854.794 240.192 854.367 240.192C853.002 240.107 851.7 240.043 850.463 240C849.226 240 847.967 240 846.687 240C844.212 240 841.588 240.064 838.815 240.192C838.388 240.192 838.09 240.043 837.919 239.744C837.748 239.445 837.663 239.125 837.663 238.784C837.706 238.059 837.876 237.653 838.175 237.568C838.474 237.483 838.836 237.44 839.263 237.44C840.628 237.44 841.588 237.205 842.143 236.736C842.698 236.224 843.039 235.605 843.167 234.88C843.338 234.112 843.423 233.323 843.423 232.512V207.104H843.231L830.047 239.68C829.962 239.893 829.791 240.043 829.535 240.128C829.279 240.256 829.023 240.32 828.767 240.32ZM861.011 240.192C860.712 240.192 860.456 240.064 860.243 239.808C860.072 239.509 859.987 239.211 859.987 238.912C860.072 238.272 860.243 237.931 860.499 237.888C860.755 237.803 861.096 237.76 861.523 237.76C862.718 237.76 863.528 237.568 863.955 237.184C864.382 236.757 864.616 236.203 864.659 235.52C864.744 234.837 864.787 234.133 864.787 233.408V218.752C864.787 217.984 864.744 217.28 864.659 216.64C864.616 215.957 864.382 215.424 863.955 215.04C863.528 214.613 862.718 214.4 861.523 214.4C861.139 214.4 860.776 214.357 860.435 214.272C860.136 214.144 859.987 213.76 859.987 213.12C859.987 212.48 860.328 212.096 861.011 211.968C862.974 211.669 864.467 211.371 865.491 211.072C866.558 210.773 867.368 210.517 867.923 210.304C868.478 210.091 868.968 209.963 869.395 209.92C869.736 209.877 870.014 209.941 870.227 210.112C870.483 210.283 870.611 210.624 870.611 211.136V233.408C870.611 234.133 870.632 234.837 870.675 235.52C870.76 236.203 871.016 236.757 871.443 237.184C871.912 237.568 872.744 237.76 873.939 237.76C874.323 237.76 874.643 237.803 874.899 237.888C875.198 237.931 875.368 238.272 875.411 238.912C875.411 239.211 875.326 239.509 875.155 239.808C874.984 240.064 874.728 240.192 874.387 240.192C873.15 240.107 871.998 240.043 870.931 240C869.907 240 868.819 240 867.667 240C866.515 240 865.427 240 864.403 240C863.379 240.043 862.248 240.107 861.011 240.192ZM867.347 202.816C866.152 202.816 865.15 202.453 864.339 201.728C863.528 200.96 863.123 200.021 863.123 198.912C863.123 197.931 863.614 197.056 864.595 196.288C865.576 195.52 866.686 195.136 867.923 195.136C868.99 195.136 869.864 195.52 870.547 196.288C871.23 197.013 871.571 197.952 871.571 199.104C871.571 200.128 871.166 201.003 870.355 201.728C869.544 202.453 868.542 202.816 867.347 202.816ZM879.636 240.192C879.337 240.192 879.081 240.064 878.868 239.808C878.697 239.509 878.612 239.211 878.612 238.912C878.697 238.272 878.868 237.931 879.124 237.888C879.38 237.803 879.721 237.76 880.148 237.76C881.343 237.76 882.153 237.568 882.58 237.184C883.007 236.757 883.241 236.203 883.284 235.52C883.369 234.837 883.412 234.133 883.412 233.408V218.752C883.412 217.984 883.369 217.28 883.284 216.64C883.241 215.957 883.007 215.424 882.58 215.04C882.153 214.613 881.343 214.4 880.148 214.4C879.764 214.4 879.401 214.357 879.06 214.272C878.761 214.144 878.612 213.76 878.612 213.12C878.612 212.48 878.953 212.096 879.636 211.968C881.599 211.669 883.092 211.371 884.116 211.072C885.183 210.773 885.972 210.517 886.484 210.304C887.039 210.091 887.529 209.963 887.956 209.92C888.297 209.877 888.575 209.941 888.788 210.112C889.044 210.283 889.172 210.624 889.172 211.136V215.168H889.364C890.217 214.357 891.092 213.589 891.988 212.864C892.884 212.096 893.929 211.477 895.124 211.008C896.361 210.496 897.876 210.24 899.668 210.24C902.569 210.24 904.873 211.115 906.58 212.864C908.287 214.613 909.14 216.917 909.14 219.776V233.408C909.14 234.133 909.161 234.837 909.204 235.52C909.289 236.203 909.545 236.757 909.972 237.184C910.441 237.568 911.273 237.76 912.468 237.76C912.852 237.76 913.172 237.803 913.428 237.888C913.727 237.931 913.897 238.272 913.94 238.912C913.94 239.211 913.855 239.509 913.684 239.808C913.513 240.064 913.257 240.192 912.916 240.192C911.679 240.107 910.527 240.043 909.46 240C908.436 240 907.348 240 906.196 240C905.044 240 903.956 240 902.932 240C901.908 240.043 900.777 240.107 899.54 240.192C899.241 240.192 898.985 240.064 898.772 239.808C898.601 239.509 898.516 239.211 898.516 238.912C898.559 238.272 898.708 237.931 898.964 237.888C899.263 237.803 899.604 237.76 899.988 237.76C901.183 237.76 901.993 237.568 902.42 237.184C902.889 236.757 903.145 236.203 903.188 235.52C903.273 234.837 903.316 234.133 903.316 233.408V219.84C903.316 218.432 902.996 217.28 902.356 216.384C901.759 215.488 900.991 214.827 900.052 214.4C899.113 213.973 898.153 213.76 897.172 213.76C895.721 213.76 894.441 214.037 893.332 214.592C892.223 215.104 891.327 215.701 890.644 216.384C889.961 217.067 889.492 217.664 889.236 218.176V233.408C889.236 234.133 889.257 234.837 889.3 235.52C889.385 236.203 889.641 236.757 890.068 237.184C890.537 237.568 891.369 237.76 892.564 237.76C892.948 237.76 893.268 237.803 893.524 237.888C893.823 237.931 893.993 238.272 894.036 238.912C894.036 239.211 893.951 239.509 893.78 239.808C893.609 240.064 893.353 240.192 893.012 240.192C891.775 240.107 890.623 240.043 889.556 240C888.532 240 887.444 240 886.292 240C885.14 240 884.052 240 883.028 240C882.004 240.043 880.873 240.107 879.636 240.192ZM930.627 240.768C928.237 240.768 926.019 240.128 923.97 238.848C921.923 237.568 920.28 235.776 919.043 233.472C917.805 231.168 917.187 228.501 917.187 225.472C917.187 222.827 917.805 220.352 919.043 218.048C920.323 215.701 922.072 213.824 924.291 212.416C926.552 210.965 929.112 210.24 931.971 210.24C933.336 210.24 934.68 210.411 936.003 210.752C937.325 211.051 938.456 211.477 939.395 212.032H939.587V202.24C939.587 201.472 939.544 200.768 939.459 200.128C939.416 199.445 939.181 198.912 938.755 198.528C938.328 198.101 937.517 197.888 936.323 197.888C935.939 197.888 935.576 197.845 935.235 197.76C934.936 197.632 934.787 197.248 934.787 196.608C934.787 195.968 935.128 195.584 935.811 195.456C937.773 195.157 939.267 194.859 940.291 194.56C941.357 194.261 942.168 194.005 942.723 193.792C943.277 193.579 943.768 193.451 944.195 193.408C944.536 193.365 944.813 193.429 945.027 193.6C945.283 193.771 945.411 194.112 945.411 194.624V234.112C945.411 236.629 947.075 237.888 950.403 237.888C950.872 237.888 951.171 238.016 951.299 238.272C951.427 238.485 951.491 238.699 951.491 238.912C951.491 239.509 951.128 239.872 950.403 240L940.227 240.704C939.928 240.704 939.757 240.576 939.715 240.32C939.672 240.064 939.651 239.765 939.651 239.424V236.864H939.459C938.392 237.973 937.048 238.912 935.427 239.68C933.848 240.405 932.248 240.768 930.627 240.768ZM932.803 237.568C934.424 237.568 935.768 237.248 936.835 236.608C937.901 235.925 938.819 235.179 939.587 234.368V217.472C939.373 216.747 938.968 216.021 938.371 215.296C937.816 214.528 937.048 213.888 936.067 213.376C935.128 212.821 933.976 212.544 932.611 212.544C930.136 212.544 928.045 213.717 926.339 216.064C924.632 218.368 923.779 221.611 923.779 225.792C923.779 227.797 924.099 229.717 924.739 231.552C925.421 233.344 926.424 234.795 927.747 235.904C929.069 237.013 930.755 237.568 932.803 237.568Z" fill="white"/>
<g filter="url(#filter0_d_581_566)">
<path d="M267 2H28C15.8497 2 6 11.8497 6 24V275.988C6 288.138 15.8497 297.988 28 297.988H267C279.15 297.988 289 288.138 289 275.988V24C289 11.8497 279.15 2 267 2Z" fill="#65C6E9"/>
<g filter="url(#filter1_i_581_566)">
<path d="M147.5 254.239C206.772 254.239 254.821 207.567 254.821 149.994C254.821 92.4211 206.772 45.749 147.5 45.749C88.2282 45.749 40.179 92.4211 40.179 149.994C40.179 207.567 88.2282 254.239 147.5 254.239Z" fill="white"/>
</g>
<path d="M170.798 231.192C183.741 231.192 194.234 221.422 194.234 209.37C194.234 205.306 193.018 201.514 190.94 198.257C192.984 198.74 195.111 199.023 197.315 199.023C211.619 199.023 223.216 188.225 223.216 174.905C223.216 165.894 217.897 158.049 210.033 153.91C221.881 150.964 230.621 140.93 230.621 128.968C230.621 114.695 218.195 103.127 202.867 103.127C202.061 103.127 201.27 103.176 200.48 103.239C202.005 100.04 202.867 96.5082 202.867 92.783C202.867 78.51 190.441 66.9395 175.115 66.9395C159.787 66.9395 147.361 78.51 147.361 92.783V209.37C147.361 221.422 157.855 231.192 170.798 231.192Z" fill="url(#paint0_linear_581_566)"/>
<path d="M123.927 231.192C110.984 231.192 100.492 221.422 100.492 209.37C100.492 205.306 101.707 201.514 103.785 198.257C101.742 198.74 99.6147 199.023 97.4106 199.023C83.1061 199.023 71.5119 188.225 71.5119 174.905C71.5119 165.894 76.8301 158.049 84.6943 153.91C72.846 150.964 64.1064 140.93 64.1064 128.968C64.1064 114.695 76.5322 103.127 91.8584 103.127C92.6644 103.127 93.4557 103.176 94.2453 103.239C92.721 100.04 91.8584 96.5082 91.8584 92.783C91.8584 78.51 104.284 66.9395 119.61 66.9395C134.938 66.9395 147.364 78.51 147.364 92.783V209.37C147.362 221.422 136.87 231.192 123.927 231.192Z" fill="url(#paint1_linear_581_566)"/>
<path d="M137.341 233.456C137.341 233.456 152.632 173.947 137.341 138.351C129.696 125.407 117.879 110.521 117.879 110.521C117.879 110.521 141.829 129.29 146.536 138.999C158.192 124.113 165.142 119.583 165.142 119.583C165.142 119.583 149.156 140.294 149.851 175.891C150.545 211.487 156.801 233.457 156.801 233.457L137.341 233.456Z" fill="white"/>
<path d="M146.368 180.991C146.368 180.991 129.373 147.833 90.5273 137.283C102.666 144.819 139.267 163.568 144.032 193.756C147.177 185.512 146.368 180.991 146.368 180.991Z" fill="white"/>
<path d="M147.361 199.583C147.361 199.583 171.705 150.449 197.602 137.283C184.653 148.987 156.17 185.882 151.316 214.189C151.133 212.842 147.361 199.583 147.361 199.583Z" fill="white"/>
<path d="M185.26 112.57C206.488 111.778 229.093 124.14 223.309 146.424C227.848 141.832 230.621 135.706 230.621 128.97C230.621 114.697 218.195 103.128 202.867 103.128C202.061 103.128 201.27 103.178 200.48 103.24C202.004 100.041 202.867 96.5101 202.867 92.7848C202.867 78.5119 190.441 66.9414 175.115 66.9414C159.787 66.9414 147.361 78.5119 147.361 92.7848C147.361 92.7848 179.001 81.9835 185.26 112.57Z" fill="url(#paint2_linear_581_566)"/>
<path d="M109.464 112.571C88.2369 111.779 65.6314 124.141 71.4157 146.424C66.876 141.833 64.1035 135.707 64.1035 128.971C64.1035 114.698 76.5293 103.129 91.8573 103.129C92.6633 103.129 93.4546 103.178 94.2442 103.241C92.7199 100.042 91.8573 96.5111 91.8573 92.7859C91.8573 78.5129 104.283 66.9424 119.609 66.9424C134.937 66.9424 147.363 78.5129 147.363 92.7859C147.363 92.7859 115.724 81.9846 109.464 112.571Z" fill="url(#paint3_linear_581_566)"/>
</g>
</g>
<defs>
<filter id="filter0_d_581_566" x="0" y="0" width="303" height="315.988" filterUnits="userSpaceOnUse" color-interpolation-filters="sRGB">
<feFlood flood-opacity="0" result="BackgroundImageFix"/>
<feColorMatrix in="SourceAlpha" type="matrix" values="0 0 0 0 0 0 0 0 0 0 0 0 0 0 0 0 0 0 127 0" result="hardAlpha"/>
<feOffset dx="4" dy="8"/>
<feGaussianBlur stdDeviation="5"/>
<feComposite in2="hardAlpha" operator="out"/>
<feColorMatrix type="matrix" values="0 0 0 0 0 0 0 0 0 0 0 0 0 0 0 0 0 0 0.25 0"/>
<feBlend mode="normal" in2="BackgroundImageFix" result="effect1_dropShadow_581_566"/>
<feBlend mode="normal" in="SourceGraphic" in2="effect1_dropShadow_581_566" result="shape"/>
</filter>
<filter id="filter1_i_581_566" x="40.179" y="45.749" width="218.642" height="212.49" filterUnits="userSpaceOnUse" color-interpolation-filters="sRGB">
<feFlood flood-opacity="0" result="BackgroundImageFix"/>
<feBlend mode="normal" in="SourceGraphic" in2="BackgroundImageFix" result="shape"/>
<feColorMatrix in="SourceAlpha" type="matrix" values="0 0 0 0 0 0 0 0 0 0 0 0 0 0 0 0 0 0 127 0" result="hardAlpha"/>
<feOffset dx="4" dy="4"/>
<feGaussianBlur stdDeviation="4"/>
<feComposite in2="hardAlpha" operator="arithmetic" k2="-1" k3="1"/>
<feColorMatrix type="matrix" values="0 0 0 0 0 0 0 0 0 0 0 0 0 0 0 0 0 0 0.25 0"/>
<feBlend mode="normal" in2="shape" result="effect1_innerShadow_581_566"/>
</filter>
<linearGradient id="paint0_linear_581_566" x1="188.991" y1="42.1851" x2="188.991" y2="185.799" gradientUnits="userSpaceOnUse">
<stop stop-color="#1AA5C9"/>
<stop offset="1" stop-color="#98DDFF"/>
</linearGradient>
<linearGradient id="paint1_linear_581_566" x1="105.734" y1="100.64" x2="105.734" y2="182.939" gradientUnits="userSpaceOnUse">
<stop stop-color="#584569"/>
<stop offset="1" stop-color="#745D8C"/>
</linearGradient>
<linearGradient id="paint2_linear_581_566" x1="213.426" y1="84.0958" x2="189.873" y2="113.854" gradientUnits="userSpaceOnUse">
<stop stop-color="#1AA5C9"/>
<stop offset="1" stop-color="#98DDFF"/>
</linearGradient>
<linearGradient id="paint3_linear_581_566" x1="81.298" y1="84.0969" x2="104.851" y2="113.855" gradientUnits="userSpaceOnUse">
<stop stop-color="#584569"/>
<stop offset="1" stop-color="#745D8C"/>
</linearGradient>
<clipPath id="clip0_581_566">
<rect width="952" height="316" fill="white"/>
</clipPath>
</defs>
</svg>
